<svg width="57" height="57" viewBox="0 0 57 57" fill="none" xmlns="http://www.w3.org/2000/svg">
<g clip-path="url(#clip0)">
<path d="M8.60565 50.3405H42.4708L40.8534 45.1036C41.0933 45.3126 54.7281 57 54.7281 57V5.87812C54.5667 2.70037 51.8306 0 48.4391 0L8.61752 0.007125C5.2284 0.007125 2.47815 2.71225 2.47815 5.89V44.46C2.47815 47.8111 5.22365 50.3405 8.60565 50.3405ZM33.6572 13.4971L33.5788 13.5256L33.6073 13.4971H33.6572ZM15.5335 16.511C19.8869 13.3427 23.922 13.4947 23.922 13.4947L24.2474 13.8154C18.9203 15.086 16.5049 17.4657 16.5049 17.4657C16.7519 17.4135 27.5083 11.2076 40.5423 17.6225C40.5423 17.6225 38.1222 15.3971 33.1228 13.9721L33.5645 13.5375C34.2556 13.5399 37.9132 13.6681 41.8272 16.53C41.8272 16.53 46.2066 24.0112 46.2066 33.2025C46.0618 33.0267 43.4897 37.1592 36.8705 37.3017C36.8705 37.3017 35.7495 36.0335 34.9515 34.9267C38.8228 33.8152 40.2715 31.5922 40.2715 31.5922C32.7356 36.3375 26.1308 35.5965 18.2291 32.3902C18.1555 32.3902 18.1223 32.357 18.0843 32.319V32.3047C18.0463 32.2691 18.013 32.2335 17.9394 32.2335H17.7969C17.3124 31.9152 16.9894 31.7585 16.9894 31.7585C16.9894 31.7585 18.4358 33.9815 22.1527 35.093C21.1765 36.2069 20.2099 37.4727 20.2099 37.4727C13.5931 37.316 11.1801 33.1835 11.1801 33.1835C11.1801 23.978 15.5335 16.511 15.5335 16.511Z" fill="white"/>
<path d="M33.9815 30.3307C35.6701 30.3307 37.0452 28.9057 37.0452 27.1482C37.0452 25.4025 35.6772 23.9775 33.9815 23.9775V23.9847C32.3 23.9847 30.9225 25.4049 30.9177 27.1624C30.9177 28.9057 32.2928 30.3307 33.9815 30.3307Z" fill="white"/>
<path d="M23.0138 30.3307C24.7024 30.3307 26.0776 28.9057 26.0776 27.1482C26.0776 25.4025 24.7119 23.9775 23.0233 23.9775L23.0138 23.9847C21.3252 23.9847 19.9501 25.4049 19.9501 27.1624C19.9501 28.9057 21.3252 30.3307 23.0138 30.3307Z" fill="white"/>
</g>
<defs>
<clipPath id="clip0">
<rect width="57" height="57" fill="white"/>
</clipPath>
</defs>
</svg>
