<svg width="58" height="58" viewBox="0 0 58 58" fill="none" xmlns="http://www.w3.org/2000/svg">
<g clip-path="url(#clip0)">
<path d="M57.6925 42.3395C57.6223 42.1881 57.5568 42.0626 57.496 41.962C56.4897 40.1496 54.5667 37.925 51.7281 35.2877L51.6682 35.2273L51.6381 35.1976L51.6078 35.1673H51.5773C50.289 33.9392 49.4732 33.1134 49.1316 32.6907C48.5065 31.8853 48.3664 31.0702 48.7081 30.2442C48.9494 29.6202 49.8561 28.3023 51.426 26.2887C52.2517 25.2216 52.9057 24.3663 53.3886 23.722C56.8718 19.0914 58.3818 16.1323 57.9186 14.8437L57.7386 14.5426C57.6178 14.3613 57.3057 14.1955 56.803 14.0442C56.2991 13.8933 55.6551 13.8683 54.8697 13.9689L46.1729 14.029C46.032 13.9791 45.8308 13.9837 45.5687 14.0442C45.3069 14.1047 45.176 14.1351 45.176 14.1351L45.0246 14.2107L44.9045 14.3016C44.8038 14.3616 44.693 14.4673 44.5721 14.6183C44.4519 14.7688 44.3513 14.9455 44.2709 15.1468C43.3241 17.5828 42.2475 19.8476 41.0393 21.9412C40.2944 23.1896 39.6102 24.2716 38.9855 25.1876C38.3615 26.1034 37.8381 26.7781 37.4156 27.2106C36.9925 27.6435 36.6107 27.9903 36.2678 28.2523C35.9254 28.5144 35.6641 28.6252 35.4831 28.5847C35.3017 28.5442 35.1309 28.504 34.9692 28.4638C34.6875 28.2825 34.4609 28.0359 34.2901 27.7239C34.1185 27.4119 34.003 27.0192 33.9426 26.5461C33.8826 26.0726 33.847 25.6654 33.8369 25.323C33.8275 24.9811 33.8318 24.4974 33.8522 23.8733C33.8732 23.249 33.8826 22.8265 33.8826 22.6051C33.8826 21.8399 33.8975 21.0095 33.9274 20.1136C33.9579 19.2178 33.9825 18.5079 34.0032 17.985C34.0237 17.4615 34.0332 16.9077 34.0332 16.3239C34.0332 15.74 33.9977 15.2821 33.9274 14.9498C33.858 14.6179 33.7515 14.2957 33.6112 13.9834C33.47 13.6714 33.2633 13.43 32.9921 13.2587C32.7204 13.0875 32.3825 12.9517 31.9805 12.8508C30.9134 12.6093 29.5546 12.4787 27.9034 12.4584C24.159 12.4182 21.753 12.66 20.686 13.1835C20.2633 13.4046 19.8807 13.7068 19.5386 14.0891C19.1762 14.5321 19.1256 14.7739 19.3873 14.8137C20.5954 14.9947 21.4506 15.4276 21.954 16.112L22.1354 16.4747C22.2765 16.7364 22.4174 17.1997 22.5584 17.8639C22.6992 18.5281 22.79 19.2629 22.83 20.0678C22.9305 21.5377 22.9305 22.796 22.83 23.8427C22.7292 24.8898 22.634 25.705 22.5431 26.2888C22.4523 26.8727 22.3165 27.3458 22.1354 27.708C21.954 28.0704 21.8333 28.2919 21.7728 28.3723C21.7124 28.4527 21.6621 28.5033 21.6221 28.5232C21.3604 28.6235 21.0883 28.6746 20.8066 28.6746C20.5245 28.6746 20.1825 28.5335 19.7799 28.2515C19.3774 27.9695 18.9598 27.5822 18.5268 27.0889C18.0939 26.5954 17.6057 25.9059 17.0619 25.0202C16.5186 24.1345 15.9548 23.0877 15.371 21.8798L14.8879 21.0038C14.5859 20.4402 14.1734 19.6197 13.65 18.5428C13.1262 17.4656 12.6632 16.4235 12.2608 15.4169C12.0999 14.9941 11.8582 14.6723 11.5362 14.4508L11.385 14.3599C11.2845 14.2796 11.1232 14.1942 10.902 14.1032C10.6804 14.0124 10.4492 13.9472 10.2074 13.9071L1.93306 13.9672C1.08753 13.9672 0.513832 14.1588 0.211752 14.5413L0.0908567 14.7223C0.0304619 14.8231 0 14.9841 0 15.2057C0 15.4272 0.0603949 15.699 0.18129 16.0208C1.38919 18.8597 2.70275 21.5976 4.12198 24.2349C5.5412 26.8721 6.77448 28.9965 7.82108 30.6062C8.86789 32.2169 9.9349 33.7372 11.0221 35.1661C12.1093 36.5956 12.829 37.5117 13.1811 37.9141C13.5336 38.3173 13.8105 38.6188 14.0118 38.8201L14.7669 39.5447C15.2501 40.028 15.9596 40.6067 16.8958 41.281C17.8321 41.9557 18.8688 42.62 20.0062 43.2748C21.1439 43.9286 22.4674 44.4621 23.9775 44.8747C25.4874 45.2877 26.9569 45.4534 28.3864 45.3735H31.8593C32.5636 45.3127 33.0972 45.0912 33.4599 44.7089L33.5801 44.5576C33.6609 44.4374 33.7365 44.2507 33.8063 43.9995C33.877 43.7479 33.9121 43.4707 33.9121 43.1691C33.8915 42.3036 33.9574 41.5236 34.108 40.8291C34.2585 40.1348 34.43 39.6113 34.6219 39.2588C34.8137 38.9066 35.0301 38.6094 35.2709 38.3684C35.5123 38.1269 35.6843 37.9807 35.7852 37.9303C35.8854 37.8797 35.9655 37.8453 36.0259 37.8247C36.5091 37.6637 37.0777 37.8196 37.7326 38.2931C38.387 38.7662 39.0008 39.3504 39.5749 40.0447C40.1487 40.7396 40.8381 41.5192 41.6433 42.3847C42.4489 43.2506 43.1533 43.8942 43.7571 44.3176L44.3608 44.68C44.764 44.9217 45.2875 45.1432 45.9318 45.3445C46.575 45.5457 47.1386 45.596 47.6225 45.4954L55.3529 45.3749C56.1175 45.3749 56.7125 45.2483 57.1345 44.9971C57.5574 44.7454 57.8086 44.4682 57.8896 44.1666C57.9704 43.8648 57.9747 43.5223 57.9049 43.1394C57.8333 42.7575 57.7628 42.4904 57.6925 42.3395Z" fill="white"/>
</g>
<defs>
<clipPath id="clip0">
<rect width="58" height="58" fill="white"/>
</clipPath>
</defs>
</svg>
