<svg width="44" height="44" viewBox="0 0 44 44" fill="none" xmlns="http://www.w3.org/2000/svg">
<g filter="url(#filter0_d)">
<path d="M22 0C12.0888 0 4 8.08938 4 18C4 27.9112 12.0894 36 22 36C31.9112 36 40 27.9106 40 18C40 8.08882 31.9106 0 22 0ZM16.6308 3.04383C15.3958 4.61398 14.4984 6.55523 13.8774 8.4375H9.3171C11.1637 5.99442 13.6986 4.09971 16.6308 3.04383ZM7.96928 10.5398H13.2805C12.8034 12.5393 12.5217 14.7099 12.4541 16.9453H6.14523C6.29669 14.6456 6.93927 12.4711 7.96928 10.5398ZM7.96928 25.4531C6.93927 23.5219 6.29669 21.3544 6.14523 19.0547H12.4541C12.5217 21.2901 12.8034 23.4536 13.2805 25.4531H7.96928ZM9.3171 27.5625H13.8773C14.4981 29.4443 15.3956 31.3858 16.6308 32.9562C13.6986 31.9003 11.1637 30.0056 9.3171 27.5625ZM20.9453 33.7116C18.5905 32.92 16.9669 29.8969 16.1094 27.5625H20.9453V33.7116ZM20.9453 25.4531H15.4529C14.9403 23.4819 14.6365 21.3128 14.5643 19.0547H20.9453V25.4531ZM20.9453 16.9453H14.5643C14.6366 14.6872 14.9403 12.5181 15.4529 10.5469H20.9453V16.9453ZM20.9453 8.4375H16.1094C16.9668 6.1032 18.5905 3.07997 20.9453 2.28839V8.4375ZM36.0307 10.5469C37.0608 12.4781 37.7033 14.6456 37.8548 16.9453H31.5459C31.4783 14.7099 31.1966 12.5464 30.7195 10.5469H36.0307ZM34.6829 8.4375H30.1227C29.5019 6.55573 28.6044 4.61419 27.3692 3.04383C30.3014 4.09971 32.8363 5.99442 34.6829 8.4375ZM23.0547 2.28839C25.4095 3.07997 27.0331 6.10313 27.8906 8.4375H23.0547V2.28839ZM23.0547 10.5469H28.5471C29.0597 12.5181 29.3635 14.6872 29.4357 16.9453H23.0547V10.5469ZM23.0547 19.0477H29.4357C29.3634 21.3058 29.0597 23.4819 28.5471 25.4531H23.0547V19.0477ZM23.0547 33.7116V27.5555H27.8906C27.0332 29.8898 25.4095 32.92 23.0547 33.7116ZM27.3692 32.9562C28.6042 31.386 29.5016 29.4377 30.1227 27.5555H34.6829C32.8363 29.9985 30.3014 31.9003 27.3692 32.9562ZM36.0307 25.4531H30.7195C31.1966 23.4536 31.4783 21.2831 31.5459 19.0477H37.8548C37.7033 21.3474 37.0607 23.5219 36.0307 25.4531Z" fill="white"/>
</g>
<defs>
<filter id="filter0_d" x="0" y="0" width="44" height="44" filterUnits="userSpaceOnUse" color-interpolation-filters="sRGB">
<feFlood flood-opacity="0" result="BackgroundImageFix"/>
<feColorMatrix in="SourceAlpha" type="matrix" values="0 0 0 0 0 0 0 0 0 0 0 0 0 0 0 0 0 0 127 0"/>
<feOffset dy="4"/>
<feGaussianBlur stdDeviation="2"/>
<feColorMatrix type="matrix" values="0 0 0 0 0 0 0 0 0 0 0 0 0 0 0 0 0 0 0.25 0"/>
<feBlend mode="normal" in2="BackgroundImageFix" result="effect1_dropShadow"/>
<feBlend mode="normal" in="SourceGraphic" in2="effect1_dropShadow" result="shape"/>
</filter>
</defs>
</svg>
